<svg xmlns="http://www.w3.org/2000/svg" version="1.1" xmlns:xlink="http://www.w3.org/1999/xlink" width="512" height="512" x="0" y="0" viewBox="0 0 512 512" style="enable-background:new 0 0 512 512" xml:space="preserve" class=""><g><path d="M483.556 227.556H28.444C12.736 227.556 0 240.292 0 256s12.736 28.444 28.444 28.444h455.111C499.264 284.444 512 271.708 512 256s-12.736-28.444-28.444-28.444zM483.556 28.444H28.444C12.736 28.444 0 41.181 0 56.889s12.736 28.444 28.444 28.444h455.111c15.708 0 28.444-12.736 28.444-28.444s-12.735-28.445-28.443-28.445zM483.556 426.667H28.444C12.736 426.667 0 439.403 0 455.111s12.736 28.444 28.444 28.444h455.111c15.708 0 28.444-12.736 28.444-28.444s-12.735-28.444-28.443-28.444z" fill="#fff7f7" opacity="1" data-original="#000000" class=""></path></g></svg>