<svg xmlns="http://www.w3.org/2000/svg" width="22.051" height="22.051" viewBox="0 0 22.051 22.051">
  <g id="Group_6279" data-name="Group 6279" transform="translate(13)">
    <g id="instagram-logo_1_" data-name="instagram-logo (1)" transform="translate(-13 0)">
      <path id="Path_8" data-name="Path 8" d="M15.966,0H6.085A6.092,6.092,0,0,0,0,6.085v9.88a6.092,6.092,0,0,0,6.085,6.085h9.88a6.092,6.092,0,0,0,6.085-6.085V6.085A6.092,6.092,0,0,0,15.966,0Zm4.129,15.966a4.134,4.134,0,0,1-4.129,4.129H6.085a4.133,4.133,0,0,1-4.129-4.129V6.085A4.133,4.133,0,0,1,6.085,1.956h9.88a4.134,4.134,0,0,1,4.129,4.129v9.88Z" transform="translate(0)" fill="#fff"/>
      <path id="Path_9" data-name="Path 9" d="M46.65,40.97a5.682,5.682,0,1,0,5.682,5.682A5.688,5.688,0,0,0,46.65,40.97Zm0,9.407a3.725,3.725,0,1,1,3.726-3.725A3.73,3.73,0,0,1,46.65,50.377Z" transform="translate(-35.624 -35.626)" fill="#fff"/>
      <path id="Path_10" data-name="Path 10" d="M120.356,28.251a1.434,1.434,0,1,0,1.015.42A1.44,1.44,0,0,0,120.356,28.251Z" transform="translate(-103.41 -24.566)" fill="#fff"/>
    </g>
  </g>
</svg>
