<svg id="Group_6270" data-name="Group 6270" xmlns="http://www.w3.org/2000/svg" xmlns:xlink="http://www.w3.org/1999/xlink" width="137.13" height="62.874" viewBox="0 0 137.13 62.874">
  <defs>
    <clipPath id="clip-path">
      <rect id="Rectangle_2958" data-name="Rectangle 2958" width="137.13" height="62.874" fill="#fff"/>
    </clipPath>
    <clipPath id="clip-path-3">
      <rect id="Rectangle_2956" data-name="Rectangle 2956" width="24.137" height="62.874" fill="#fff"/>
    </clipPath>
  </defs>
  <g id="Group_6269" data-name="Group 6269" clip-path="url(#clip-path)">
    <g id="Group_6268" data-name="Group 6268" transform="translate(0 0)">
      <g id="Group_6267" data-name="Group 6267" clip-path="url(#clip-path)">
        <path id="Path_21229" data-name="Path 21229" d="M21.4,20.193v6.37H20.9C20.7,20.8,14.291,20.7,14.056,20.7H12.741V40.247c0,2.258,1.247,3.169,2.663,3.169v.506H5.967v-.506c1.415,0,2.663-.91,2.663-3.169V20.7H7.315c-.506,0-6.607.1-6.809,5.864H0v-6.37Z" transform="translate(0 -0.62)" fill="#fff"/>
        <path id="Path_21230" data-name="Path 21230" d="M43.544,20.193v6.37h-.506C42.836,20.8,36.431,20.7,36.2,20.7H34.881V40.247c0,2.258,1.247,3.169,2.663,3.169v.506H28.107v-.506c1.415,0,2.663-.91,2.663-3.169V20.7H29.455c-.506,0-6.607.1-6.809,5.864H22.14v-6.37Z" transform="translate(-0.68 -0.62)" fill="#fff"/>
        <path id="Path_21231" data-name="Path 21231" d="M111.4,20.193V20.7c-2.022,0-3.607.808-6.539,8.056l-5.7,15.167h-.5l-5.831-14.8-5.258,14.8h-.506L78.844,23.361C77.833,20.8,76.687,20.7,75.676,20.7v-.506h9.909V20.7c-2.966,0-1.82,3.269-1.752,3.4l5.325,14.022,3.4-9.741-1.854-5.022C89.731,20.8,88.551,20.7,87.573,20.7v-.506h9.909V20.7c-3.033,0-1.82,3.269-1.786,3.4l5.158,14.156,3.5-9.639c.472-1.619,3-7.921-2.224-7.921v-.506Z" transform="translate(-2.325 -0.62)" fill="#fff"/>
        <path id="Path_21232" data-name="Path 21232" d="M140.344,20.193V20.7c-2.022,0-3.607.808-6.539,8.056l-5.7,15.167h-.5l-5.831-14.8-5.258,14.8h-.506l-8.224-20.561c-1.011-2.562-2.157-2.663-3.168-2.663v-.506h9.909V20.7c-2.966,0-1.82,3.269-1.752,3.4L118.1,38.124l3.4-9.741-1.854-5.022c-.977-2.562-2.157-2.663-3.135-2.663v-.506h9.909V20.7c-3.033,0-1.82,3.269-1.786,3.4l5.158,14.156,3.5-9.639c.472-1.619,3-7.921-2.224-7.921v-.506Z" transform="translate(-3.214 -0.62)" fill="#fff"/>
        <rect id="Rectangle_2954" data-name="Rectangle 2954" width="21.484" height="4.329" transform="translate(49.284 37.485) rotate(-45)" fill="#fff"/>
        <rect id="Rectangle_2955" data-name="Rectangle 2955" width="4.329" height="21.484" transform="translate(49.284 25.355) rotate(-45)" fill="#fff"/>
        <g id="Group_6266" data-name="Group 6266" transform="translate(46.307 0)" opacity="0.5">
          <g id="Group_6265" data-name="Group 6265" transform="translate(0 0)">
            <g id="Group_6264" data-name="Group 6264" clip-path="url(#clip-path-3)">
              <path id="Path_21233" data-name="Path 21233" d="M62.042,18.612h9.869L59.877,0,47.844,18.612h9.869V44.226H47.775v.035L59.843,62.873l12-18.647h-9.8Zm-7.687-3.777,5.523-9.046L65.4,14.835ZM65.366,47.692,59.86,56.774l-5.575-9.081Z" transform="translate(-47.775 0)" fill="#fff"/>
            </g>
          </g>
        </g>
      </g>
    </g>
  </g>
</svg>
