<svg id="Group_6278" data-name="Group 6278" xmlns="http://www.w3.org/2000/svg" width="19.572" height="18.702" viewBox="0 0 19.572 18.702">
  <g id="linkedin-logo" transform="translate(0 0)">
    <path id="LinkedIn" d="M19.572,21.024V28.26H15.377V21.509c0-1.7-.607-2.853-2.125-2.853A2.3,2.3,0,0,0,11.1,20.19a2.87,2.87,0,0,0-.139,1.023V28.26h-4.2s.057-11.434,0-12.619h4.2V17.43c-.009.013-.02.028-.028.041h.028V17.43a4.166,4.166,0,0,1,3.781-2.085C17.5,15.345,19.572,17.148,19.572,21.024ZM2.375,9.558a2.187,2.187,0,1,0-.056,4.361h.028a2.187,2.187,0,1,0,.028-4.361ZM.249,28.26H4.444V15.641H.249Z" transform="translate(0 -9.558)" fill="#fff"/>
  </g>
</svg>
