<svg xmlns="http://www.w3.org/2000/svg" width="23.301" height="18.641" viewBox="0 0 23.301 18.641">
  <g id="Group_2852" data-name="Group 2852" transform="translate(-161)">
    <path id="noun-youtube-3451621" d="M135.494,93.924a43.921,43.921,0,0,0-14.4,0c-2.726.571-4.427,2.33-4.427,4.625V106.7c0,2.33,1.7,4.066,4.474,4.66h0a43.357,43.357,0,0,0,14.377.012c2.7-.513,4.451-2.33,4.451-4.66V98.561c0-2.319-1.748-4.136-4.474-4.637Zm-3.379,9.251-5.826,3.5a.558.558,0,0,1-.3.082.665.665,0,0,1-.291-.07.606.606,0,0,1-.291-.536v-6.99a.606.606,0,0,1,.291-.513.629.629,0,0,1,.594,0l5.826,3.5a.594.594,0,0,1,0,1Z" transform="translate(44.334 -93.33)" fill="#fff"/>
  </g>
</svg>
